<?xml version="1.0" standalone="no"?>
<!DOCTYPE svg PUBLIC "-//W3C//DTD SVG 20010904//EN"
 "http://www.w3.org/TR/2001/REC-SVG-20010904/DTD/svg10.dtd">
<svg version="1.0" xmlns="http://www.w3.org/2000/svg"
 width="500.000000pt" height="500.000000pt" viewBox="0 0 500.000000 500.000000"
 preserveAspectRatio="xMidYMid meet">

<g transform="translate(0.000000,500.000000) scale(0.100000,-0.100000)"
fill="#000000" stroke="none">
<path d="M2647 4579 c-309 -26 -589 -127 -643 -231 -14 -27 -16 -60 -10 -242
3 -116 9 -229 12 -252 l6 -41 -169 -22 c-308 -41 -816 -130 -914 -161 -154
-48 -184 -77 -222 -218 -28 -104 -30 -321 -4 -435 11 -43 16 -81 13 -84 -3 -4
-97 -21 -208 -39 -111 -19 -215 -39 -230 -45 -36 -15 -111 -95 -137 -147 -56
-110 -70 -328 -30 -458 55 -177 103 -227 332 -343 l166 -85 -60 -62 c-73 -77
-114 -162 -130 -266 -21 -144 26 -284 136 -405 54 -60 61 -64 152 -93 123 -38
693 -182 1028 -259 494 -113 1314 -270 1455 -278 l91 -5 142 82 c203 117 904
587 1232 825 111 81 225 193 225 222 0 37 -21 90 -42 110 -13 11 -61 37 -108
58 -47 21 -88 42 -91 48 -23 35 -9 201 22 259 5 9 52 45 104 79 53 34 100 70
105 80 16 29 12 84 -8 102 -11 10 -114 39 -245 69 -207 47 -230 55 -260 83
-19 18 -73 52 -121 75 -47 24 -83 47 -79 51 5 4 124 39 266 77 143 38 265 76
273 84 8 8 21 36 29 61 14 47 14 47 -17 82 -17 20 -61 54 -98 76 -95 56 -105
70 -104 138 1 98 62 180 160 216 84 31 116 89 79 143 -20 27 -126 89 -236 138
-46 21 -194 74 -329 119 l-245 82 -1 62 c-4 166 -130 311 -297 339 l-42 7 -6
98 c-6 83 -10 102 -32 130 -53 69 -233 139 -433 167 -106 14 -356 20 -477 9z
m568 -67 c106 -24 190 -54 237 -85 196 -133 -165 -301 -669 -311 -334 -6 -608
51 -686 143 -37 44 -34 67 16 116 51 51 158 95 306 125 167 34 234 39 476 35
184 -3 248 -7 320 -23z m-968 -479 c31 -16 31 -17 32 -94 1 -202 115 -454 290
-641 24 -27 41 -48 38 -48 -22 0 -122 49 -180 87 -174 116 -288 349 -301 618
-2 44 -1 95 1 113 l5 33 42 -26 c22 -14 55 -33 73 -42z m1430 -25 c54 -25 109
-86 122 -135 13 -45 14 -63 3 -63 -16 0 -207 62 -216 70 -5 5 -5 43 -1 85 8
85 4 84 92 43z m-12 -268 c115 -32 115 -32 66 -68 -55 -40 -189 -69 -205 -44
-3 5 2 33 10 63 23 81 23 81 37 76 7 -3 49 -15 92 -27z m-1596 -108 c45 -126
95 -206 186 -297 92 -92 181 -142 310 -176 64 -16 114 -21 250 -22 153 -2 178
0 245 21 153 48 277 140 359 268 l44 69 106 0 c96 0 112 3 169 29 44 21 79 47
116 88 l53 58 116 -39 c64 -22 220 -81 348 -132 169 -67 227 -94 213 -99 -10
-4 -93 -22 -184 -39 -91 -17 -241 -49 -335 -71 -93 -22 -267 -60 -385 -85
-275 -59 -514 -114 -760 -175 -228 -57 -337 -71 -374 -47 -23 16 -188 86 -596
254 -318 131 -470 190 -660 254 -96 33 -178 63 -183 68 -13 13 -3 15 308 65
154 25 345 57 425 70 213 35 192 41 229 -62z m-809 -166 c113 -40 268 -98 345
-129 127 -49 822 -338 887 -367 26 -12 44 -38 34 -48 -3 -2 -141 50 -308 117
-167 66 -391 151 -498 190 -203 72 -554 200 -675 246 -114 44 -168 24 -217
-80 -43 -93 -49 -216 -18 -350 39 -169 50 -184 201 -254 229 -105 616 -228
1127 -357 250 -63 350 -84 399 -84 98 0 248 33 1393 305 52 12 203 48 335 79
237 56 273 71 261 103 -3 7 -3 13 0 13 12 0 84 -44 84 -51 0 -10 24 -3 -385
-104 -192 -47 -393 -99 -445 -115 -117 -36 -276 -76 -395 -100 -305 -63 -518
-103 -720 -135 l-230 -38 -132 17 c-173 22 -288 51 -578 142 -398 127 -771
277 -831 335 -88 85 -142 335 -108 497 30 147 78 209 184 243 39 12 71 4 290
-75z m-143 -95 c662 -234 1356 -495 1378 -518 10 -10 11 -22 4 -45 -13 -46
-11 -280 2 -334 6 -25 9 -47 7 -49 -7 -7 -362 67 -578 121 -304 76 -916 287
-990 342 -27 20 -35 47 -71 221 -24 118 -22 177 12 243 43 85 47 86 236 19z
m3326 -168 c-20 -42 -25 -218 -9 -305 l8 -47 -53 -15 c-30 -8 -144 -36 -254
-61 -110 -25 -301 -70 -425 -100 -124 -30 -297 -70 -385 -90 -88 -20 -279 -65
-425 -101 -146 -36 -275 -62 -287 -59 -15 3 -26 20 -38 56 -30 88 -18 314 18
363 8 11 133 42 417 105 223 49 551 122 730 161 311 69 618 126 688 129 l32 1
-17 -37z m-3600 -455 c127 -99 382 -200 912 -358 493 -147 438 -135 635 -134
118 0 208 6 275 17 55 10 145 25 200 33 311 49 618 112 952 195 l162 41 83
-50 c46 -28 104 -60 131 -73 55 -27 60 -39 15 -39 -18 0 -69 -7 -113 -15 -93
-17 -83 -15 -335 -65 -107 -22 -251 -49 -320 -60 -69 -11 -190 -34 -270 -49
-267 -53 -364 -70 -555 -101 -158 -25 -377 -62 -775 -130 -82 -15 -93 -13
-111 18 -12 22 -109 79 -405 242 -214 117 -439 241 -500 274 -61 34 -183 99
-272 146 -88 47 -159 87 -156 89 9 9 369 68 384 62 8 -2 37 -22 63 -43z m-426
-79 c43 -23 112 -59 153 -82 41 -22 107 -57 145 -77 575 -308 958 -521 971
-541 10 -18 -12 -8 -91 37 -44 26 -109 63 -145 84 -102 58 -473 256 -715 380
-121 62 -245 128 -276 146 -46 28 -67 34 -111 34 -77 0 -102 -22 -130 -113
-44 -139 -24 -325 46 -435 33 -52 46 -62 181 -134 66 -36 273 -149 460 -253
722 -399 715 -395 686 -395 -8 0 -52 22 -100 49 -152 86 -841 466 -986 544
-194 104 -226 125 -261 179 -41 60 -74 185 -74 276 0 73 22 197 41 235 18 36
92 107 110 107 10 0 53 -19 96 -41z m90 -148 c87 -42 196 -100 398 -211 28
-15 160 -87 295 -160 271 -147 406 -224 432 -247 16 -14 16 -18 -2 -53 -28
-55 -46 -216 -31 -288 6 -30 10 -56 8 -58 -3 -3 -538 250 -695 329 -120 60
-274 150 -507 294 -72 45 -82 55 -98 99 -34 89 -19 222 35 312 13 21 27 32 42
32 13 0 68 -22 123 -49z m4038 -267 c207 -51 200 -45 113 -102 -116 -77 -305
-192 -315 -192 -14 0 -236 129 -244 141 -9 15 7 63 36 109 27 43 52 66 85 78
42 16 178 2 325 -34z m-482 -33 c-21 -41 -38 -89 -40 -118 -4 -43 -1 -53 31
-98 l36 -50 -187 -37 c-299 -59 -548 -108 -683 -133 -69 -13 -219 -42 -335
-65 -923 -181 -1182 -227 -1196 -213 -5 5 -15 40 -20 77 -20 124 18 252 82
283 14 7 133 31 265 53 131 22 251 43 266 46 26 5 27 5 17 -28 -5 -18 -9 -86
-9 -150 0 -111 1 -118 20 -118 11 0 21 3 21 8 1 4 3 18 4 31 4 36 55 70 55 37
0 -8 11 -28 24 -43 22 -25 25 -26 32 -10 3 10 1 30 -5 43 -11 25 -8 44 8 44 5
0 12 -15 15 -34 7 -39 30 -64 41 -46 7 11 -1 88 -13 119 -3 9 20 -12 52 -46
52 -57 86 -78 86 -55 0 7 -38 148 -69 260 -7 24 -6 34 2 37 7 2 116 21 242 44
658 114 888 155 1070 190 110 22 205 40 212 40 6 1 -5 -30 -24 -68z m-3593
-217 c0 -8 -98 49 -128 73 -15 13 8 2 51 -23 42 -25 77 -48 77 -50z m50 -30
c0 -2 -9 0 -20 6 -11 6 -20 13 -20 16 0 2 9 0 20 -6 11 -6 20 -13 20 -16z
m2000 -16 c6 -24 15 -56 20 -72 16 -48 12 -47 -41 10 -29 30 -59 54 -67 54
-15 0 -14 -26 4 -109 6 -29 5 -33 -12 -29 -19 3 -27 16 -66 103 -12 28 -23 53
-25 56 -4 5 99 24 149 27 24 2 28 -3 38 -40z m2030 -39 c-16 -94 -8 -271 14
-304 9 -13 16 -29 16 -34 0 -7 -152 -121 -306 -228 -30 -21 -32 -21 -27 -3 4
16 -10 29 -71 67 l-76 48 0 68 c0 52 -4 69 -16 74 -26 10 -33 -8 -35 -85 -1
-40 -5 -75 -9 -77 -5 -3 -20 16 -35 41 -20 35 -32 44 -48 42 -33 -5 -24 -28
59 -155 54 -83 79 -113 92 -111 25 5 26 34 3 64 -22 28 -27 59 -12 69 6 3 37
-12 71 -34 l61 -40 -153 -108 c-185 -132 -703 -494 -738 -516 -28 -18 -37 -14
-66 28 -31 44 -45 91 -55 175 -9 85 10 203 42 255 12 21 144 110 436 296 455
290 487 309 533 309 65 0 129 41 139 90 6 30 19 42 96 91 50 31 92 55 94 53 1
-1 -2 -35 -9 -75z m-273 -36 c7 -11 9 -24 4 -32 -6 -8 -135 -39 -342 -82 -184
-38 -516 -107 -739 -153 -223 -47 -445 -92 -495 -101 -49 -9 -112 -23 -140
-30 -27 -8 -232 -51 -455 -95 -223 -44 -413 -82 -423 -84 -11 -3 -28 7 -43 24
-36 39 -156 109 -696 402 -82 44 -148 82 -148 84 0 2 180 -86 400 -196 333
-166 408 -200 444 -200 23 0 211 33 417 74 206 41 505 100 664 131 160 31 427
82 595 115 168 32 413 80 545 105 132 25 248 48 258 51 11 3 25 22 33 41 l15
34 47 -34 c26 -20 52 -44 59 -54z m-3512 -43 c3 -6 -1 -7 -9 -4 -18 7 -21 14
-7 14 6 0 13 -4 16 -10z m1591 -15 c6 -24 0 -44 -10 -34 -11 11 -17 59 -7 59
6 0 13 -11 17 -25z m1543 -156 c-46 -28 -115 -70 -153 -92 -120 -69 -340 -208
-366 -232 -53 -48 -119 -85 -150 -85 -18 0 -125 20 -239 45 -113 25 -240 53
-281 62 -41 8 -82 19 -89 23 -25 13 103 47 428 111 345 68 491 102 736 170 94
26 176 48 184 48 8 1 -24 -22 -70 -50z m-3229 4 c-18 -20 -45 -64 -61 -97 -26
-55 -29 -72 -29 -161 0 -102 22 -261 39 -278 5 -5 164 -47 353 -92 432 -104
428 -103 703 -182 126 -36 315 -83 420 -104 104 -21 330 -67 500 -103 454 -95
562 -116 588 -116 23 0 47 -16 47 -32 0 -13 -34 -9 -228 26 -103 19 -230 41
-282 50 -97 15 -400 81 -840 181 -135 31 -345 79 -468 106 -229 52 -677 176
-738 205 -44 21 -92 77 -130 151 -26 52 -29 68 -29 148 1 122 26 184 109 270
65 69 100 90 46 28z m222 -48 c98 -50 547 -306 590 -336 92 -66 216 -63 519
11 68 16 140 30 160 30 61 0 555 -86 751 -131 101 -23 199 -45 218 -48 32 -6
35 -9 32 -36 -2 -17 -5 -88 -8 -159 -6 -123 -5 -132 21 -198 15 -38 25 -71 22
-74 -7 -7 -154 10 -407 47 -443 65 -750 129 -1615 338 -398 97 -442 108 -469
126 -52 35 -76 236 -39 338 19 54 91 137 119 137 9 0 57 -20 106 -45z m3847
-35 c50 -26 23 -54 -239 -245 -74 -54 -146 -108 -160 -121 -22 -19 -125 -91
-470 -329 -47 -32 -150 -99 -230 -148 -80 -49 -156 -99 -170 -112 -14 -12 -64
-42 -111 -67 l-87 -46 -30 19 c-19 13 -140 41 -341 81 -171 33 -309 63 -307
65 2 3 73 -7 158 -21 200 -33 382 -57 488 -63 l85 -5 115 83 c63 45 287 203
497 350 553 388 684 483 717 518 l30 31 -24 25 -24 26 42 -15 c22 -8 50 -20
61 -26z m-1965 -275 c352 -76 420 -93 386 -94 -13 -1 -119 17 -235 40 -115 22
-280 54 -365 70 -197 38 -225 47 -146 48 37 1 168 -23 360 -64z m-251 -612
c-7 -2 -19 -2 -25 0 -7 3 -2 5 12 5 14 0 19 -2 13 -5z m50 -10 c-7 -2 -19 -2
-25 0 -7 3 -2 5 12 5 14 0 19 -2 13 -5z"/>
<path d="M1626 2948 c-44 -154 -48 -180 -33 -196 20 -19 98 -27 126 -13 30 16
61 83 61 130 0 63 -15 90 -62 111 -66 30 -75 27 -92 -32z m88 -24 c26 -25 21
-100 -8 -129 -20 -20 -30 -23 -48 -16 -26 10 -26 24 -2 107 16 56 31 66 58 38z"/>
<path d="M1828 2923 c-21 -25 -72 -198 -64 -218 10 -27 30 -12 48 36 9 24 17
39 17 32 2 -31 44 -123 57 -123 16 0 18 27 5 62 -4 13 -11 35 -15 51 -6 24 -4
27 18 27 94 0 117 94 33 133 -45 22 -80 21 -99 0z m86 -39 c9 -3 16 -14 16
-24 0 -20 -19 -30 -60 -30 -28 0 -29 1 -19 30 11 30 29 37 63 24z"/>
<path d="M2005 2878 c-27 -75 -62 -215 -55 -222 19 -19 36 5 54 73 20 77 33
93 17 20 -6 -24 -11 -65 -11 -91 0 -77 31 -56 45 30 9 53 16 47 45 -40 23 -74
38 -92 47 -59 5 20 6 20 18 5 16 -22 45 -11 45 16 0 19 37 66 46 58 2 -2 6
-22 9 -44 10 -69 15 -84 30 -84 23 0 26 15 15 92 l-11 73 40 35 c23 20 41 41
41 47 0 28 -25 22 -77 -17 l-56 -43 7 37 c4 21 10 44 13 52 5 14 -23 32 -34
21 -3 -3 -20 -54 -39 -114 -38 -126 -42 -119 -13 31 21 112 20 136 -5 136 -10
0 -18 -19 -26 -57 -22 -116 -20 -115 -46 -38 -27 77 -40 97 -53 77 -7 -11 -9
-10 -14 2 -8 19 -26 21 -32 4z"/>
<path d="M3562 2959 c-29 -12 -56 -27 -58 -34 -3 -8 4 -48 15 -89 25 -91 25
-86 5 -86 -8 0 -38 -10 -65 -21 -27 -12 -51 -20 -53 -18 -2 2 -6 16 -10 31 -6
25 -2 29 39 47 64 28 57 58 -10 39 -44 -12 -55 -10 -55 11 0 13 15 25 50 39
48 20 71 45 56 60 -4 4 -40 -5 -79 -19 -84 -29 -88 -37 -61 -138 26 -101 40
-124 70 -117 50 13 134 55 134 68 0 8 5 6 11 -4 5 -10 18 -18 29 -18 30 0 140
51 140 66 0 25 -21 25 -74 1 -46 -21 -55 -23 -60 -10 -14 35 -5 51 34 67 51
20 56 51 8 43 -18 -3 -40 -8 -49 -12 -11 -4 -18 0 -22 14 -4 18 4 26 51 49 31
15 58 33 60 40 6 18 -45 14 -106 -9z"/>
<path d="M3225 2890 c-22 -10 -48 -19 -57 -19 -25 -1 -22 -34 10 -156 19 -70
32 -101 43 -103 25 -5 29 21 13 74 -8 26 -11 50 -8 53 3 3 24 13 47 21 23 9
42 22 42 30 0 15 -19 17 -80 9 -22 -3 -30 0 -33 13 -2 13 10 24 45 40 46 23
64 51 33 55 -8 1 -33 -7 -55 -17z"/>
<path d="M3065 2850 c-22 -10 -50 -19 -62 -19 -13 -1 -23 -7 -23 -13 1 -20 57
-239 64 -245 3 -3 13 -3 22 1 12 5 15 14 10 36 -3 17 -9 43 -12 60 -6 26 -3
31 22 40 45 16 59 26 63 45 3 18 -7 18 -81 0 -20 -5 -26 -2 -30 13 -4 15 6 24
48 45 39 19 52 31 48 42 -8 19 -19 18 -69 -5z"/>
<path d="M2853 2790 c-44 -18 -65 -91 -41 -147 34 -81 100 -106 152 -58 22 20
26 33 26 76 0 105 -59 160 -137 129z m83 -66 c35 -53 10 -123 -38 -111 -44 11
-65 97 -30 123 26 20 50 17 68 -12z"/>
<path d="M2682 2744 c-89 -62 -54 -234 48 -234 51 0 82 24 78 63 -4 38 -25 47
-34 13 -3 -14 -14 -28 -25 -31 -63 -20 -98 91 -47 152 8 10 15 9 35 -7 14 -11
29 -17 34 -14 17 10 9 43 -13 58 -28 20 -48 20 -76 0z"/>
<path d="M442 2438 c4 -11 202 -125 733 -423 121 -68 234 -131 252 -141 23
-14 35 -16 43 -8 8 8 -24 31 -117 84 -107 61 -665 375 -838 472 -53 30 -79 35
-73 16z"/>
<path d="M625 2219 c-9 -13 -22 -4 135 -92 74 -41 267 -150 429 -241 197 -111
298 -163 305 -156 12 12 20 5 -89 67 -49 28 -205 116 -345 195 -406 231 -419
238 -424 238 -3 0 -8 -5 -11 -11z"/>
<path d="M444 2169 c-3 -6 -2 -14 2 -19 16 -15 571 -320 582 -320 39 0 -6 35
-135 105 -200 109 -350 192 -400 221 -28 16 -44 20 -49 13z"/>
<path d="M3306 2122 c-8 -13 -11 -280 -3 -288 14 -14 37 7 37 34 0 58 41 69
66 17 26 -56 63 -44 42 13 -9 24 -9 35 -1 43 9 9 13 3 18 -25 8 -40 34 -53 83
-41 65 16 94 80 72 161 -18 62 -58 94 -118 94 -69 0 -73 -6 -62 -75 13 -82 13
-84 -11 -78 -14 4 -32 30 -54 79 -31 68 -54 90 -69 66z m262 -83 c7 -13 11
-42 10 -63 -3 -33 -7 -41 -32 -49 -35 -12 -41 -3 -50 68 -3 29 -9 60 -12 68
-7 20 25 28 51 12 11 -7 26 -23 33 -36z m-198 -74 c0 -2 -7 -5 -15 -9 -12 -4
-15 3 -15 37 l1 42 14 -34 c8 -18 15 -35 15 -36z"/>
<path d="M3151 2070 c-35 -10 -68 -26 -73 -35 -9 -15 -11 -15 -29 1 -23 21
-112 15 -137 -10 -15 -15 -15 -24 0 -126 8 -61 18 -113 21 -117 4 -3 14 -3 23
1 12 5 15 16 12 46 -2 22 -2 40 1 40 2 0 19 -18 38 -40 33 -38 73 -54 73 -29
0 6 -16 29 -35 50 -19 22 -35 43 -35 47 0 5 14 18 30 30 17 13 30 30 31 40 1
30 16 -17 24 -76 10 -75 22 -85 87 -66 74 22 95 31 103 43 12 21 -27 24 -79 7
-68 -21 -66 -21 -66 18 0 30 4 34 32 40 71 14 79 51 9 43 -39 -5 -51 -3 -55 9
-8 20 1 34 19 34 27 0 95 32 95 45 0 22 -22 23 -89 5z m-127 -69 c10 -16 -5
-41 -35 -56 -15 -8 -30 -15 -34 -15 -11 0 -4 69 8 73 21 9 56 7 61 -2z"/>
<path d="M2628 1993 c-23 -3 -28 -10 -28 -31 1 -54 38 -214 51 -223 13 -8 46
-5 92 7 42 12 61 112 33 177 -25 60 -74 83 -148 70z m74 -54 c21 -11 48 -66
48 -97 0 -26 -21 -49 -51 -55 -24 -6 -25 -4 -37 63 -7 39 -12 77 -12 85 0 18
23 19 52 4z"/>
<path d="M4175 1659 c-43 -38 -52 -67 -31 -108 20 -38 51 -47 118 -33 59 11
78 7 78 -18 0 -28 -35 -52 -72 -48 -28 2 -34 -1 -36 -19 -4 -25 25 -44 58 -38
45 9 60 17 85 46 33 40 33 82 -1 116 -23 23 -31 25 -77 19 -29 -3 -64 -9 -78
-12 -40 -9 -48 24 -13 54 21 19 34 22 61 17 38 -7 55 14 33 40 -22 27 -85 19
-125 -16z"/>
<path d="M3846 1445 c-48 -17 -56 -25 -65 -66 -12 -54 3 -97 50 -145 70 -71
135 -69 175 7 30 59 -4 149 -75 196 -39 27 -35 26 -85 8z m90 -79 c37 -37 43
-69 18 -104 -21 -30 -50 -28 -84 7 -38 38 -46 72 -25 105 23 35 50 33 91 -8z"/>
<path d="M3660 1322 c-64 -8 -104 -90 -75 -158 17 -41 80 -101 114 -109 118
-26 157 142 54 236 -30 28 -54 36 -93 31z m72 -79 c32 -34 43 -74 29 -101 -27
-51 -89 -30 -121 41 -18 40 -18 41 3 64 29 30 58 29 89 -4z"/>
<path d="M3446 1185 c-48 -17 -90 -47 -94 -66 -1 -8 30 -62 70 -119 90 -128
104 -134 175 -67 36 35 46 51 46 76 0 37 -29 71 -61 74 -18 1 -22 8 -22 35 0
22 -8 41 -25 57 -28 29 -35 29 -89 10z m58 -61 c15 -40 -44 -81 -69 -47 -19
24 -18 40 3 52 26 15 59 13 66 -5z m84 -114 c4 -20 -18 -46 -44 -54 -17 -5
-26 1 -42 26 -20 30 -20 34 -4 40 29 12 87 4 90 -12z"/>
<path d="M750 1491 c0 -12 368 -101 416 -101 23 0 16 19 -8 24 -13 3 -104 23
-203 46 -193 43 -205 45 -205 31z"/>
<path d="M836 1352 c-7 -11 59 -28 299 -76 100 -20 174 -31 179 -26 13 13 8
14 -219 60 -110 23 -212 43 -226 46 -15 3 -29 2 -33 -4z"/>
<path d="M710 1255 c0 -5 3 -6 305 -79 440 -106 847 -187 862 -172 9 8 -9 13
-147 36 -172 29 -396 78 -715 155 -254 61 -305 71 -305 60z"/>
<path d="M2254 1191 c-94 -58 -123 -196 -52 -256 43 -36 124 -36 162 1 19 20
26 23 26 11 0 -9 12 -25 28 -37 34 -27 93 -22 128 11 54 51 69 164 27 211 -29
33 -79 51 -106 37 -41 -21 -77 -62 -83 -95 l-6 -32 -35 14 c-49 21 -98 15 -98
-11 0 -16 9 -21 42 -26 51 -6 61 -14 47 -37 -15 -23 -77 -28 -98 -7 -33 33
-11 136 35 169 34 23 49 20 60 -14 7 -18 18 -30 29 -30 42 0 34 72 -11 95 -37
20 -58 19 -95 -4z m286 -100 c30 -57 -6 -141 -60 -141 -48 0 -64 56 -37 123
12 27 20 32 50 34 27 2 39 -2 47 -16z"/>
<path d="M2674 1110 c-50 -32 -74 -116 -55 -188 14 -50 43 -72 95 -72 73 0
133 97 116 189 -9 52 -23 68 -69 81 -48 13 -51 13 -87 -10z m104 -73 c35 -72
-34 -163 -89 -118 -16 13 -21 28 -21 59 1 51 15 79 44 85 40 8 52 3 66 -26z"/>
<path d="M2875 1091 c-4 -8 -45 -250 -45 -271 0 -19 72 -42 113 -37 47 6 65
21 88 72 39 85 14 191 -51 221 -34 16 -98 25 -105 15z m101 -82 c25 -28 26
-105 1 -142 -13 -20 -26 -27 -51 -27 -18 0 -35 2 -38 5 -2 3 2 45 11 95 13 81
17 90 37 90 11 0 29 -9 40 -21z"/>
</g>
</svg>
