<svg id="Capa_1" enable-background="new 0 0 512 512" height="512" viewBox="0 0 512 512" width="512" xmlns="http://www.w3.org/2000/svg"><g><g><g><g><path d="m75 321.571c-33.137 0-60 26.863-60 60 0 33.137 26.863 60 60 60h188.5l7.5-60-7.5-60z" fill="#eaf1ff"/><path d="m452 381.571c0-33.137 26.863-60 60-60h-248.5v120h248.5c-33.137 0-60-26.863-60-60z" fill="#d5e7ff"/></g><g><path d="m30 381.571c0-24.813 20.187-45 45-45h188.5l9.926-14.439-9.926-15.561h-188.5c-41.355 0-75 33.645-75 75s33.645 75 75 75h188.5l7.5-15-7.5-15h-188.5c-24.813 0-45-20.186-45-45z" fill="#73cbb1"/></g><g><path d="m82.776 366.571v30h180.724l7.5-15-7.5-15z" fill="#d5e7ff"/><path d="m452 381.571c0-5.179.656-10.206 1.891-15h-190.391v30h190.39c-1.234-4.794-1.89-9.82-1.89-15z" fill="#acceff"/></g><g fill="#539499"><path d="m263.5 426.571h248.5v30h-248.5z"/><path d="m263.5 306.571h248.5v30h-248.5z"/></g></g><g><g><path d="m75 171.571c-33.137 0-60 26.863-60 60 0 33.137 26.863 60 60 60h188.5l7.5-60-7.5-60z" fill="#eaf1ff"/><path d="m452 231.571c0-33.137 26.863-60 60-60h-248.5v120h248.5c-33.137 0-60-26.863-60-60z" fill="#d5e7ff"/></g><g><path d="m30 231.571c0-24.813 20.187-45 45-45h188.5l9.926-14.439-9.926-15.561h-188.5c-41.355 0-75 33.645-75 75s33.645 75 75 75h188.5l7.5-15-7.5-15h-188.5c-24.813 0-45-20.186-45-45z" fill="#f5d844"/></g><g><path d="m82.776 216.571v30h180.724l7.5-15-7.5-15z" fill="#d5e7ff"/><path d="m452 231.571c0-5.179.656-10.206 1.891-15h-190.391v30h190.39c-1.234-4.794-1.89-9.82-1.89-15z" fill="#acceff"/></g><g fill="#ecbd2c"><path d="m263.5 276.571h248.5v30h-248.5z"/><path d="m263.5 156.571h248.5v30h-248.5z"/></g></g><path d="m138.691 381.571v123.858l52.974-26.18 52.973 26.18v-123.858z" fill="#e06379"/></g><g><g><path d="m157.778 21.571c-33.137 0-60 26.863-60 60 0 33.137 26.863 60 60 60h105.724l7.5-60-7.5-60z" fill="#eaf1ff"/><path d="m380.396 81.571c0-33.137 26.863-60 60-60h-176.894v120h176.895c-33.138 0-60.001-26.863-60.001-60z" fill="#d5e7ff"/></g><g><path d="m112.778 81.571c0-24.813 20.187-45 45-45h105.724l9.926-14.439-9.926-15.561h-105.724c-41.355 0-75 33.645-75 75s33.645 75 75 75h105.724l7.5-15-7.5-15h-105.724c-24.814 0-45-20.186-45-45z" fill="#6b66d0"/></g><g><path d="m165.554 66.571v30h97.948l7.5-15-7.5-15z" fill="#d5e7ff"/><path d="m380.396 81.571c0-5.179.656-10.206 1.891-15h-118.785v30h118.785c-1.234-4.794-1.891-9.82-1.891-15z" fill="#acceff"/></g><g fill="#524798"><path d="m263.502 126.571h176.895v30h-176.895z"/><path d="m263.502 6.571h176.895v30h-176.895z"/></g></g></g></svg>