<?xml version="1.0" ?><!DOCTYPE svg  PUBLIC '-//W3C//DTD SVG 1.1//EN'  'http://www.w3.org/Graphics/SVG/1.1/DTD/svg11.dtd'><svg height="512px" style="enable-background:new 0 0 512 512;" version="1.1" viewBox="0 0 512 512" width="512px" xml:space="preserve" xmlns="http://www.w3.org/2000/svg" xmlns:xlink="http://www.w3.org/1999/xlink"><g id="B_-_118_x2C__Profile_x2C__Abilities_x2C__business_x2C__employee_x2C__job_x2C__man_x2C__resume_x2C__skills"><g><path d="M107.409,89.177h-34.38v34.334h34.38V89.177z M69.483,81.993h41.563    c1.908,0,3.545,1.636,3.545,3.593v41.562c0,1.957-1.637,3.593-3.545,3.593H69.483c-2.006,0-3.552-1.636-3.552-3.593V85.586    C65.932,83.629,67.478,81.993,69.483,81.993z M107.409,167.801h-34.38v34.334h34.38v-15.052l-13.188,7.594    c-1.638,0.91-3.729,0.5-4.729-1.045l-7.458-10.641c-1.092-1.592-0.73-3.866,0.815-5.002c1.638-1.137,3.913-0.729,5.097,0.91    l5.545,7.912l13.918-8.05V167.801z M69.483,160.618h41.563c1.908,0,3.545,1.59,3.545,3.593v10.412l2.546-1.455    c1.729-0.999,3.914-0.454,4.914,1.274c1,1.728,0.454,3.955-1.276,4.911l-6.184,3.547v22.829c0,2-1.637,3.593-3.545,3.593H69.483    c-2.006,0-3.552-1.592-3.552-3.593V164.21C65.932,162.208,67.478,160.618,69.483,160.618z M107.409,246.428h-34.38v34.287h34.38    V246.428z M69.483,239.196h41.563c1.908,0,3.545,1.638,3.545,3.593v41.519c0,2.001-1.637,3.639-3.545,3.639H69.483    c-2.006,0-3.552-1.638-3.552-3.639v-41.519C65.932,240.834,67.478,239.196,69.483,239.196z M107.409,325.006h-34.38v34.334h34.38    v-19.19l-13.188,7.594c-1.638,0.955-3.729,0.501-4.729-1.045l-7.458-10.596c-1.092-1.637-0.73-3.865,0.815-5.002    c1.638-1.137,3.913-0.772,5.097,0.863l5.545,7.958l13.918-8.049V325.006z M69.483,317.822h41.563c1.908,0,3.545,1.59,3.545,3.593    v6.275l2.546-1.457c1.729-0.999,3.914-0.408,4.914,1.32c1,1.682,0.454,3.909-1.276,4.864l-6.184,3.547v26.968    c0,1.954-1.637,3.593-3.545,3.593H69.483c-2.006,0-3.552-1.639-3.552-3.593v-41.518C65.932,319.412,67.478,317.822,69.483,317.822    z M129.688,102.638c-2,0-3.638-1.638-3.638-3.638c0-1.955,1.638-3.593,3.638-3.593h108.956c2,0,3.637,1.638,3.637,3.593    c0,2-1.637,3.638-3.637,3.638H129.688z M129.688,117.326c-2,0-3.638-1.638-3.638-3.593c0-2,1.638-3.593,3.638-3.593h68.484    c2,0,3.545,1.592,3.545,3.593c0,1.955-1.546,3.593-3.545,3.593H129.688z M129.688,181.217c-2,0-3.638-1.638-3.638-3.593    c0-2,1.638-3.593,3.638-3.593h108.956c2,0,3.637,1.592,3.637,3.593c0,1.955-1.637,3.593-3.637,3.593H129.688z M129.688,195.905    c-2,0-3.638-1.591-3.638-3.593c0-2,1.638-3.591,3.638-3.591h68.484c2,0,3.545,1.59,3.545,3.591c0,2.002-1.546,3.593-3.545,3.593    H129.688z M129.688,259.797c-2,0-3.638-1.591-3.638-3.594c0-2,1.638-3.591,3.638-3.591h108.956c2,0,3.637,1.59,3.637,3.591    c0,2.003-1.637,3.594-3.637,3.594H129.688z M129.688,274.53c-2,0-3.638-1.638-3.638-3.593c0-2,1.638-3.639,3.638-3.639h68.484    c2,0,3.545,1.639,3.545,3.639c0,1.955-1.546,3.593-3.545,3.593H129.688z M129.688,338.422c-2,0-3.638-1.637-3.638-3.594    c0-2,1.638-3.637,3.638-3.637h89.4c2.006,0,3.644,1.637,3.644,3.637c0,1.957-1.638,3.594-3.644,3.594H129.688z M129.688,353.109    c-2,0-3.638-1.591-3.638-3.593c0-2.001,1.638-3.591,3.638-3.591h63.939c2,0,3.637,1.59,3.637,3.591    c0,2.002-1.637,3.593-3.637,3.593H129.688z M339.6,359.112l14.643,13.642l32.65-53.796l-10.735-9.821L339.6,359.112z     M282.573,319.05l31.013,56.57l16.463-16.416l-36.655-50.067L282.573,319.05z M325.866,298.769    c-16.009-3.365-29.197-14.642-39.294-29.286c-15.457-22.419-23.645-52.842-23.645-73.941c0-20.19,8.188-38.471,21.376-51.703    c11.003-10.96,25.461-18.464,41.563-20.737V45.704H40.47v356.654h150.427c0.092-18.1,1.276-28.739,6.551-37.38    c6.637-10.687,18.732-17.145,42.017-29.559c9.82-5.229,21.646-11.597,36.558-20.099l15.464-14.188    c1.453-1.32,3.729-1.229,5.092,0.227l29.288,40.017V298.769z M359.332,408.088c-1.999,0-3.637-1.592-3.637-3.592    c0-1.956,1.638-3.593,3.637-3.593h32.013c2,0,3.638,1.637,3.638,3.593c0,2-1.638,3.592-3.638,3.592H359.332z M359.332,428.188    c-1.999,0-3.637-1.591-3.637-3.593c0-2,1.638-3.592,3.637-3.592h32.013c2,0,3.638,1.592,3.638,3.592    c0,2.002-1.638,3.593-3.638,3.593H359.332z M289.211,149.885c11.55-11.959,27.467-19.326,45.113-19.326    c17.642,0,33.559,7.367,45.108,19.326c11.458,11.869,18.556,28.285,18.556,46.384c0,18.826-7.098,46.064-20.469,66.12    c-10.545,15.826-25.008,27.331-43.195,27.331c-18.192,0-32.742-11.505-43.291-27.331c-13.373-20.055-20.464-47.293-20.464-66.12    C270.569,178.17,277.752,161.754,289.211,149.885z M425.91,341.332c-9.281-4.957-20.378-10.914-33.197-18.189l-34.564,56.934    c-0.092,0.271-0.27,0.546-0.547,0.772c-1.36,1.455-3.637,1.547-5.09,0.182l-17.641-16.462l-19.646,19.509v0.046l-0.093,0.044l0,0    v0.048l-0.093,0.044l0,0l-0.092,0.046v0.046l0,0l-0.086,0.045l0,0v0.046h-0.091l0,0l-0.093,0.09l0,0h-0.092l-0.185,0.138    l-0.085,0.046v0.043h-0.092v0.048h-0.092v0.044h-0.093l0,0l-0.185,0.046v0.046h-0.086l0,0l-0.091,0.046l0,0h-0.093l0,0v0.046l0,0    h-0.092l0,0h-0.092v0.045h-0.093l0,0h-0.085l0,0h-0.092v0.044h-0.094l0,0h-0.091l0,0h-0.093l0,0h-0.092h-0.177l0,0h-0.185l0,0    l-0.178-0.044l0,0h-0.092l0,0h-0.092l0,0l0,0h-0.093v-0.045h-0.092l0,0l0,0l-0.093-0.046h-0.084l0,0l-0.094-0.046l0,0    l-0.275-0.092l0,0l-0.092-0.044h-0.086v-0.048h-0.093v-0.043h-0.091v-0.046l0,0l-0.093-0.046l-0.092-0.092h-0.093v-0.044    l-0.178-0.092l0,0l-0.092-0.045v-0.046l0,0l-0.092-0.046v-0.044h-0.092v-0.048v-0.044h-0.093v-0.046v-0.046v-0.045h-0.085l0,0    v-0.044v-0.046l-0.093-0.046l0,0l-0.091-0.138l0,0l-0.185-0.227l0,0v-0.046l-0.179-0.181v-0.138l-32.834-59.89    c-13.096,7.414-24.376,13.461-33.834,18.509c-22.101,11.778-33.65,17.917-39.195,26.966c-6.005,9.823-5.821,24.329-5.459,54.615    c0.092,8.503,0.276,18.188,0.276,27.693c45.47,10.367,90.855,15.37,136.332,15.279c45.377-0.046,90.854-5.229,136.33-15.279    c0-9.141,0.093-18.599,0.271-26.966c0.368-30.559,0.546-45.247-5.545-55.206C460.191,359.658,448.464,353.382,425.91,341.332z" style="fill-rule:evenodd;clip-rule:evenodd;"/></g></g><g id="Layer_1"/></svg>