<?xml version="1.0" ?><!DOCTYPE svg  PUBLIC '-//W3C//DTD SVG 1.1//EN'  'http://www.w3.org/Graphics/SVG/1.1/DTD/svg11.dtd'><svg height="512px" style="enable-background:new 0 0 512 512;" version="1.1" viewBox="0 0 512 512" width="512px" xml:space="preserve" xmlns="http://www.w3.org/2000/svg" xmlns:xlink="http://www.w3.org/1999/xlink"><g id="_x35_5_x2C__deveopment_x2C__idea_x2C__bulb_x2C__pencil_x2C__scale_x2C_"><g><path d="M206.258,178.743l-15.909-12.696l5.226-9.03l18.934,7.447l1.822-2.104    l1.986-2.127l2.032-1.916l2.176-1.867l-7.447-18.936l9.054-5.225l12.673,15.887l2.622-0.922c1.941-0.567,3.454-0.969,5.416-1.466    l2.906-0.521l3.029-20.118h10.447l3.025,20.095l2.72,0.52l2.836,0.662l2.625,0.78l2.766,0.993l12.673-15.91l9.054,5.225    l-7.446,18.936l2.126,1.821l2.081,1.985l1.938,2.01l1.867,2.198l18.938-7.447l5.226,9.055l-15.912,12.672l0.947,2.647l0.825,2.742    l0.639,2.648l0.52,2.907l20.12,3.026v10.448l-20.12,3.026l-0.495,2.695l-0.663,2.836l-0.804,2.672l-0.969,2.742l15.912,12.672    l-5.226,9.055l-18.938-7.447l-1.843,2.15l-1.94,2.081l-2.008,1.868l-2.246,1.914l7.472,18.937l-9.054,5.225l-12.673-15.91    l-2.646,0.946l-2.744,0.826l-2.671,0.639l-2.885,0.52l-3.025,20.119h-10.447l-3.029-20.119l-2.622-0.473    c-2.057-0.496-3.548-0.898-5.58-1.488l-2.741-0.97l-12.673,15.91l-9.054-5.225l7.447-18.937l-2.126-1.82l-2.081-1.986    l-1.917-2.032l-1.892-2.175l-18.934,7.447l-5.226-9.055l15.887-12.672l-0.947-2.671l-0.779-2.72l-0.663-2.717l-0.52-2.838    l-20.116-3.026v-10.448l20.116-3.051l0.499-2.719l0.684-2.813l0.755-2.624L206.258,178.743z M197.867,164.63l11.985,9.573    c1.063,0.852,1.751,1.986,2.035,3.192c0.281,1.182,0.186,2.458-0.309,3.616l-0.804,2.27l-0.664,2.34l-0.614,2.531l-0.449,2.41    c-0.211,1.277-0.804,2.389-1.632,3.215c-0.874,0.875-1.982,1.443-3.214,1.633l-15.175,2.292v0.474l15.129,2.27    c1.348,0.188,2.53,0.851,3.404,1.797c0.874,0.921,1.442,2.15,1.558,3.475l0.404,2.104l0.589,2.436l0.709,2.411l0.853,2.411    c0.449,1.183,0.474,2.436,0.165,3.57c-0.33,1.182-1.018,2.27-1.986,3.025l-12.01,9.575l0.239,0.378L212.407,226    c1.229-0.473,2.506-0.496,3.688-0.166c1.179,0.331,2.267,1.064,3.05,2.08l1.534,1.773l1.751,1.82l1.843,1.797l1.892,1.607    c0.993,0.805,1.656,1.869,1.962,3.003c0.309,1.182,0.26,2.458-0.189,3.616l-5.626,14.327l0.379,0.212l9.574-12.01    c0.828-1.039,1.94-1.725,3.145-2.009c1.183-0.283,2.436-0.212,3.594,0.261l2.316,0.827c1.822,0.52,3.145,0.898,4.987,1.324    l2.32,0.425c1.274,0.213,2.386,0.805,3.214,1.607c0.874,0.898,1.463,2.033,1.632,3.238l2.292,15.178h0.474l2.267-15.153    c0.189-1.324,0.853-2.506,1.797-3.38c0.923-0.875,2.176-1.443,3.499-1.561l2.127-0.402l2.365-0.567l2.46-0.732l2.362-0.827    c1.207-0.473,2.46-0.497,3.594-0.213c1.183,0.33,2.246,1.04,3.024,1.984l9.554,12.01l0.399-0.236l-5.626-14.303    c-0.474-1.229-0.494-2.553-0.14-3.734c0.33-1.158,1.038-2.223,2.031-2.979l1.867-1.607l1.772-1.679l1.751-1.845l1.633-1.914    c0.803-0.993,1.866-1.654,3.024-1.963c1.158-0.307,2.436-0.26,3.594,0.189l14.326,5.627l0.211-0.402l-12.007-9.551    c-1.042-0.827-1.727-1.938-2.011-3.145c-0.284-1.182-0.214-2.435,0.26-3.593l0.828-2.341l0.685-2.363l0.614-2.529l0.449-2.412    c0.214-1.253,0.804-2.363,1.632-3.191c0.874-0.875,2.011-1.466,3.215-1.654l15.179-2.294v-0.449l-15.179-2.27    c-1.348-0.212-2.53-0.874-3.38-1.819c-0.853-0.922-1.418-2.128-1.513-3.428l-0.425-2.176l-0.568-2.364l-0.733-2.458l-0.828-2.364    c-0.471-1.206-0.52-2.459-0.211-3.594c0.33-1.182,1.039-2.246,1.986-3.026l12.007-9.573l-0.211-0.378l-14.326,5.602    c-1.231,0.473-2.506,0.521-3.688,0.189c-1.183-0.33-2.271-1.064-3.05-2.08l-1.537-1.797l-1.727-1.82l-1.867-1.773l-1.892-1.607    c-0.993-0.804-1.652-1.867-1.962-3.025c-0.305-1.158-0.26-2.436,0.189-3.594l5.626-14.326l-0.399-0.213l-9.554,11.986    c-0.849,1.063-1.982,1.75-3.189,2.033c-1.183,0.283-2.461,0.189-3.618-0.308l-2.292-0.804l-2.316-0.686l-2.53-0.591l-2.411-0.449    c-1.277-0.214-2.411-0.805-3.239-1.655c-0.85-0.852-1.442-1.986-1.632-3.215l-2.267-15.153h-0.449l-2.295,15.153    c-0.211,1.371-0.874,2.553-1.818,3.404c-0.923,0.851-2.13,1.418-3.429,1.514l-2.176,0.425c-1.797,0.426-3.095,0.78-4.871,1.3    l-2.337,0.851c-1.183,0.449-2.436,0.474-3.573,0.166c-1.179-0.331-2.246-1.017-3.025-1.985l-9.574-12.01l-0.379,0.236    l5.626,14.326c0.474,1.205,0.498,2.506,0.168,3.688c-0.333,1.182-1.067,2.27-2.057,3.026l-1.797,1.536l-1.822,1.75l-1.797,1.867    l-1.607,1.893c-0.804,0.992-1.867,1.654-3.025,1.961c-1.158,0.308-2.436,0.26-3.594-0.213l-14.326-5.625L197.867,164.63z     M271.106,433.895h-30.238v15.934h30.238V433.895z M225.739,406.354h0.07h60.377h0.074h9.17v-15.91h-8.65H225.22h-8.654v15.91    H225.739z M225.22,384.628h61.561c6.664,0,12.718-2.695,17.137-7.044l0.144-0.166c4.443-4.422,7.188-10.543,7.188-17.281    c0-2.389,0.046-4.729,0.116-7.021l0.024-0.07c0.947-28.133,7.612-48.203,15.533-66.028l0.26-0.591l0.119-0.26l0.165-0.331    l0.26-0.592l0.116-0.26l0.144-0.354l0.284-0.567l0.095-0.237l0.165-0.354l0.284-0.591l0.07-0.214l0.189-0.378l0.284-0.591    l0.07-0.165l0.189-0.426l0.281-0.567l0.073-0.166l0.189-0.426l0.28-0.566l0.074-0.143l0.189-0.449l0.281-0.567l0.073-0.118    l0.21-0.473l0.33-0.662l0.215-0.473l0.283-0.591l0.025-0.071l0.234-0.496l0.285-0.566l0.045-0.072l0.239-0.496l0.284-0.592    l0.021-0.047l0.519-1.087l0.024-0.023l0.26-0.544l0.26-0.566l0.025-0.024l0.543-1.111l0,0l0.189-0.426    c1.418-2.907,2.836-5.792,4.209-8.699l0.07-0.166l0.119-0.259l0.213-0.402l0.166-0.379l0.021-0.047l0.189-0.426l0.759-1.607    l0.023-0.048l0.187-0.426l0.189-0.401l0.073-0.165l0.116-0.261l0.19-0.426l0.164-0.378l0.025-0.048l0.189-0.401l0.189-0.425    l0.07-0.166l0.119-0.26l0.189-0.426l0.164-0.379l0.021-0.023l0.189-0.426l0.189-0.425l0.07-0.188l0.119-0.237l0.165-0.425    l0.165-0.379c8.135-18.889,12.413-37.352,12.413-58.676c0-27.612-11.181-52.623-29.29-70.732    c-18.109-18.084-43.122-29.291-70.734-29.291s-52.621,11.207-70.73,29.291c-18.109,18.109-29.29,43.12-29.29,70.732    c0,27.306,7.258,48.652,18.509,71.962l0.14,0.284l0.074,0.142l0.21,0.425l0.404,0.828l0.189,0.426l0.116,0.236l0.095,0.189    l0.214,0.401l0.189,0.425l0.024,0.024l0.186,0.401l0.189,0.426l0.428,0.827l0.186,0.402v0.023l0.828,1.702l0.26,0.521l0.024,0.047    l0.26,0.567l0.26,0.52l0.024,0.023l0.285,0.592l0.235,0.496l0.024,0.048l0.285,0.591c10.118,20.922,19.811,43.262,20.99,77.635    v0.072v0.047v0.023v0.071c0.095,2.269,0.144,4.586,0.144,6.95c0,6.738,2.741,12.859,7.187,17.281    C212.357,381.887,218.482,384.628,225.22,384.628z M351.744,246.97c-2.72,7.021-5.814,13.688-8.984,20.283l-0.094,0.189    l-0.096,0.188l-2.291,4.729l-0.189,0.378l0,0l-0.499,1.04l-0.046,0.071l-0.213,0.426l-0.496,1.04l-0.26,0.496l-0.498,1.041    l-0.115,0.283l-0.119,0.236l-0.26,0.496l-0.165,0.354l-0.074,0.166l-0.259,0.521l-0.496,1.039l-0.238,0.497v0.023l-0.26,0.521    l-0.234,0.52l-0.025,0.048l-0.52,1.11l-0.189,0.402l-0.33,0.709l-0.164,0.332l-0.238,0.52l-0.116,0.26l-0.144,0.283l-0.236,0.521    l-0.144,0.331l-0.091,0.189l-0.238,0.543c-2.98,6.502-5.791,13.286-8.227,20.639h26.784v-25.365c0-1.585,1.323-2.885,2.909-2.885    c1.607,0,2.906,1.3,2.906,2.885v25.365h16.456v-37.707c0-1.584,1.298-2.908,2.905-2.908c1.583,0,2.91,1.324,2.91,2.908v37.707    h15.6v-25.365c0-1.585,1.302-2.885,2.909-2.885s2.909,1.3,2.909,2.885v25.365h16.453v-37.707c0-1.584,1.298-2.908,2.905-2.908    c1.587,0,2.909,1.324,2.909,2.908v37.707h18.369c0-91.017,0-23.83,0-60.425H351.744z M186.805,307.395    c-7.212-21.773-18.464-39.527-26.55-60.425H69.879c0,35.933,0-29.669,0,60.425h19.997v-25.365c0-1.585,1.327-2.885,2.91-2.885    c1.607,0,2.906,1.3,2.906,2.885v25.365h16.456v-37.707c0-1.584,1.298-2.908,2.906-2.908c1.586,0,2.909,1.324,2.909,2.908v37.707    h15.604v-25.365c0-1.585,1.298-2.885,2.906-2.885s2.909,1.3,2.909,2.885v25.365h16.453v-37.707c0-1.584,1.302-2.908,2.91-2.908    c1.583,0,2.906,1.324,2.906,2.908v37.707H186.805z M146.26,332.359l-54.088,15.343l54.088,15.343v-9.764v-0.095v-0.071v-11.561    v-0.07v-0.096V332.359z M193.708,338.576c-0.284-2.411-0.618-4.752-0.993-7.045h-40.64v7.045H193.708z M194.677,350.279    c-0.095-2.011-0.214-3.973-0.379-5.888h-42.223v5.888H194.677z M195.147,363.848c-0.14-1.205-0.21-2.458-0.21-3.711    c0-1.348-0.024-2.695-0.049-4.043h-42.813v7.754H195.147z M237.963,428.103h36.05h0.095h9.174v-15.934h-54.563v15.934h9.17    H237.963z M382.074,331.531h-15.2v32.316h15.2c4.162,0,7.966-1.701,10.711-4.444c2.765-2.741,4.467-6.548,4.467-10.733v-1.961    c0-4.113-1.656-7.85-4.327-10.591l-0.14-0.143C390.04,333.234,386.236,331.531,382.074,331.531z M361.08,363.848v-32.316h-8.96    v32.316H361.08z M346.305,338.576v-7.045h-27.02c-0.379,2.293-0.709,4.634-0.993,7.045H346.305z M346.305,350.279v-5.888h-28.603    c-0.169,1.915-0.284,3.877-0.379,5.888H346.305z M346.305,363.848v-7.754h-29.195c-0.025,1.348-0.046,2.695-0.046,4.043    c0,1.253-0.07,2.506-0.238,3.711H346.305z M272.43,181.509c-4.208-4.208-10.023-6.809-16.432-6.809    c-6.405,0-12.22,2.601-16.428,6.809s-6.809,10.024-6.809,16.431s2.601,12.222,6.809,16.43c4.208,4.207,10.023,6.809,16.428,6.809    c6.408,0,12.224-2.602,16.432-6.809c4.208-4.208,6.809-10.023,6.809-16.43S276.638,185.717,272.43,181.509z M428.055,465.053    c1.583,0,2.885,1.301,2.885,2.908c0,1.583-1.302,2.907-2.885,2.907h-55.131c-1.607,0-2.905-1.324-2.905-2.907    c0-1.607,1.298-2.908,2.905-2.908H428.055z M359.616,480.183c1.583,0,2.885,1.3,2.885,2.907c0,1.608-1.302,2.909-2.885,2.909    H234.699c-1.607,0-2.91-1.301-2.91-2.909c0-1.607,1.302-2.907,2.91-2.907H359.616z M76.757,485.999    c-1.607,0-2.909-1.301-2.909-2.909c0-1.607,1.302-2.907,2.909-2.907h55.106c1.607,0,2.906,1.3,2.906,2.907    c0,1.608-1.298,2.909-2.906,2.909H76.757z M180.491,485.999c-1.607,0-2.909-1.301-2.909-2.909c0-1.607,1.302-2.907,2.909-2.907    h25.132c1.607,0,2.906,1.3,2.906,2.907c0,1.608-1.298,2.909-2.906,2.909H180.491z M334.344,51.533    c0.805-1.371,2.576-1.844,3.949-1.064c1.393,0.805,1.867,2.577,1.063,3.949l-16.003,27.754c-0.804,1.371-2.579,1.867-3.948,1.063    c-1.396-0.803-1.871-2.576-1.063-3.947L334.344,51.533z M394.603,109.664c1.396-0.779,3.169-0.307,3.948,1.064    c0.804,1.396,0.334,3.169-1.063,3.949l-27.729,16.027c-1.397,0.78-3.169,0.307-3.948-1.063c-0.804-1.396-0.334-3.168,1.063-3.948    L394.603,109.664z M417.723,190.138c1.607,0,2.91,1.3,2.91,2.907c0,1.584-1.303,2.908-2.91,2.908h-32.031    c-1.607,0-2.909-1.324-2.909-2.908c0-1.607,1.302-2.907,2.909-2.907H417.723z M177.512,54.418    c-0.804-1.372-0.33-3.145,1.063-3.949c1.372-0.779,3.169-0.307,3.948,1.064l16.028,27.754c0.783,1.371,0.309,3.145-1.063,3.947    c-1.393,0.805-3.166,0.309-3.969-1.063L177.512,54.418z M119.38,114.678c-1.372-0.78-1.867-2.554-1.063-3.949    c0.779-1.371,2.552-1.844,3.948-1.064l27.753,16.029c1.372,0.78,1.846,2.553,1.063,3.948c-0.803,1.37-2.576,1.844-3.948,1.063    L119.38,114.678z M253.282,28.861c0.021-1.606,1.348-2.883,2.931-2.859c1.607,0.022,2.884,1.322,2.86,2.932l-0.379,27.281    c0,1.607-1.323,2.883-2.93,2.859c-1.583,0-2.86-1.324-2.836-2.907L253.282,28.861z M124.086,190.138    c1.607,0,2.906,1.3,2.906,2.907c0,1.584-1.299,2.908-2.906,2.908H92.052c-1.583,0-2.909-1.324-2.909-2.908    c0-1.607,1.327-2.907,2.909-2.907H124.086z M145.196,470.868c-1.607,0-2.909-1.324-2.909-2.907c0-1.607,1.302-2.908,2.909-2.908    h193.806c1.607,0,2.905,1.301,2.905,2.908c0,1.583-1.298,2.907-2.905,2.907H145.196z M255.998,168.885    c8.016,0,15.273,3.262,20.521,8.511c5.271,5.271,8.534,12.528,8.534,20.544c0,8.014-3.264,15.271-8.51,20.52    c-5.271,5.271-12.529,8.533-20.545,8.533c-8.012,0-15.27-3.262-20.52-8.51c-5.271-5.271-8.531-12.529-8.531-20.543    c0-8.016,3.26-15.272,8.51-20.521C240.729,172.146,247.986,168.885,255.998,168.885z" style="fill-rule:evenodd;clip-rule:evenodd;"/></g></g><g id="Layer_1"/></svg>